<svg width="450" height="377" viewBox="0 0 450 377" fill="none" xmlns="http://www.w3.org/2000/svg">
<g clip-path="url(#clip0_4986_17051)">
<path d="M299.524 250.867C318.73 434.641 392.442 409.917 447.363 150.153C461.814 81.8055 415.285 15.3276 346.649 2.31428C278.013 -10.699 211.823 34.3921 198.81 103.028C185.797 171.664 292.263 181.387 299.524 250.867Z" fill="#F2F2F2"/>
<path d="M61.7504 308.551C61.7504 331.804 47.9271 339.923 30.8752 339.923C13.8233 339.923 0 331.804 0 308.551C0 285.298 30.8752 255.718 30.8752 255.718C30.8752 255.718 61.7504 285.298 61.7504 308.551Z" fill="#F2F2F2"/>
<path d="M29.7504 336.366L30.0668 316.905L43.2265 292.83L30.116 313.853L30.2586 305.102L39.3282 287.684L30.2961 302.787L30.5514 287.049L40.2637 273.182L30.5919 284.575L30.7518 255.717L29.7475 293.919L29.8303 292.343L19.9558 277.229L29.6719 295.368L28.7518 312.945L28.7244 312.478L17.3412 296.573L28.6897 314.126L28.5751 316.324L28.5544 316.357L28.5635 316.537L26.2293 361.13H29.3482L29.7224 338.097L41.0435 320.587L29.7504 336.366Z" fill="#F2F2F2"/>
<path d="M61.7504 308.551C61.7504 331.804 47.9271 339.923 30.8752 339.923C13.8233 339.923 0 331.804 0 308.551C0 285.298 30.8752 255.718 30.8752 255.718C30.8752 255.718 61.7504 285.298 61.7504 308.551Z" fill="#F2F2F2"/>
<path d="M29.7504 336.366L30.0668 316.905L43.2265 292.83L30.116 313.853L30.2586 305.102L39.3282 287.684L30.2961 302.787L30.5514 287.049L40.2637 273.182L30.5919 284.575L30.7518 255.717L29.7475 293.919L29.8303 292.343L19.9558 277.229L29.6719 295.368L28.7518 312.945L28.7244 312.478L17.3412 296.573L28.6897 314.126L28.5751 316.324L28.5544 316.357L28.5635 316.537L26.2293 361.13H29.3482L29.7224 338.097L41.0435 320.587L29.7504 336.366Z" fill="#3F3D56"/>
<path d="M225.042 376.922C348.479 376.922 448.544 370.345 448.544 362.231C448.544 354.117 348.479 347.539 225.042 347.539C101.605 347.539 1.53961 354.117 1.53961 362.231C1.53961 370.345 101.605 376.922 225.042 376.922Z" fill="#3F3D56"/>
<path opacity="0.1" d="M104.139 370.179C134.998 370.179 160.014 365.799 160.014 360.395C160.014 354.992 134.998 350.611 104.139 350.611C73.2795 350.611 48.2632 354.992 48.2632 360.395C48.2632 365.799 73.2795 370.179 104.139 370.179Z" fill="black"/>
<path opacity="0.1" d="M338.238 371.142C369.097 371.142 394.114 367.368 394.114 362.713C394.114 358.057 369.097 354.283 338.238 354.283C307.379 354.283 282.363 358.057 282.363 362.713C282.363 367.368 307.379 371.142 338.238 371.142Z" fill="black"/>
<path d="M113.696 186.922L130.235 187.558C130.235 187.558 144.866 194.555 144.866 200.28C144.866 206.005 127.691 193.919 127.691 193.919L113.696 193.283L113.696 186.922Z" fill="#FFB9B9"/>
<path opacity="0.1" d="M113.696 186.922L130.235 187.558C130.235 187.558 144.866 194.555 144.866 200.28C144.866 206.005 127.691 193.919 127.691 193.919L113.696 193.283L113.696 186.922Z" fill="black"/>
<path d="M114.333 181.833C114.333 181.833 117.513 189.466 116.877 193.283C116.241 197.1 92.0687 195.827 92.0687 195.827L95.8853 184.377L114.333 181.833Z" fill="#FFB9B9"/>
<path d="M91.4326 319.869L90.1605 337.044L100.974 337.68L102.882 321.141L91.4326 319.869Z" fill="#FFB9B9"/>
<path d="M91.4325 192.011L88.8881 198.372C88.8881 198.372 83.1631 204.097 84.4353 218.091C85.7075 232.086 86.3437 232.722 86.3437 232.722C86.3437 232.722 81.2548 321.141 85.7075 321.777C90.1603 322.413 114.969 334.499 117.513 320.505C120.057 306.511 121.33 249.897 121.33 249.897L92.0687 197.1L91.4325 192.011Z" fill="#2F2E41"/>
<path opacity="0.1" d="M91.4325 192.011L88.8881 198.372C88.8881 198.372 83.1631 204.097 84.4353 218.091C85.7075 232.086 86.3437 232.722 86.3437 232.722C86.3437 232.722 81.2548 321.141 85.7075 321.777C90.1603 322.413 114.969 334.499 117.513 320.505C120.057 306.511 121.33 249.897 121.33 249.897L92.0687 197.1L91.4325 192.011Z" fill="black"/>
<path d="M120.057 309.691L114.332 317.96L123.874 321.777L132.144 308.419L120.057 309.691Z" fill="#FFB9B9"/>
<path d="M114.333 132.852C122.413 132.852 128.963 126.302 128.963 118.222C128.963 110.141 122.413 103.591 114.333 103.591C106.252 103.591 99.7021 110.141 99.7021 118.222C99.7021 126.302 106.252 132.852 114.333 132.852Z" fill="#FFB9B9"/>
<path d="M102.883 113.133C102.883 113.133 90.1604 126.491 86.3437 127.127C82.527 127.763 99.702 138.577 99.702 138.577V134.761C99.702 134.761 105.427 129.036 108.608 128.399C111.788 127.763 102.883 113.133 102.883 113.133Z" fill="#FFB9B9"/>
<path d="M92.7048 188.83L88.8881 198.372C88.8881 198.372 81.2548 217.455 92.0687 227.633C102.883 237.811 134.052 269.616 132.78 276.613C131.508 283.611 112.652 308.344 118.581 311.562C124.51 314.78 189.394 303.33 190.03 295.697C190.268 292.834 187.913 287.288 184.875 281.474C179.14 270.575 172.083 260.427 163.862 251.257L120.694 202.824C120.694 202.824 116.241 193.283 117.513 191.374C117.513 191.374 112.424 186.285 97.1575 190.102L92.7048 188.83Z" fill="#2F2E41"/>
<path d="M89.5242 335.136C89.5242 335.136 86.3437 345.313 85.0715 345.95C83.7993 346.586 82.527 353.583 83.7992 354.855C85.0715 356.127 85.7076 361.852 85.7076 361.852H86.9798L87.6159 355.491C87.6159 355.491 100.795 363.448 102.883 364.397C106.381 365.987 121.966 365.669 121.33 362.488C120.694 359.308 102.246 349.13 102.883 346.586C103.519 344.041 101.61 336.408 101.61 336.408L89.5242 335.136Z" fill="#2F2E41"/>
<path d="M125.783 321.141L113.06 316.052C113.06 316.052 109.88 321.141 106.063 321.141C102.246 321.141 99.2796 325.767 99.4908 325.998C99.702 326.229 93.977 333.863 93.977 333.863L95.0049 335.712L102.246 331.318L104.276 339.842C105.393 344.656 107.592 349.151 110.706 352.988C113.202 356.025 116.312 358.6 119.421 358.035C119.421 358.035 120.694 358.035 119.421 349.129C118.149 340.224 120.694 330.682 120.694 330.682L125.783 321.141Z" fill="#2F2E41"/>
<path d="M92.7047 126.491C92.7047 126.491 93.977 129.672 95.2492 130.308C96.5214 130.944 100.338 133.488 100.974 136.033C101.61 138.577 104.791 146.211 104.791 146.211C104.791 146.211 111.788 150.027 111.152 157.024C110.516 164.022 109.88 169.747 111.152 170.383C112.424 171.019 113.696 171.019 113.06 172.927C112.424 174.835 114.333 176.744 114.969 177.38C115.605 178.016 116.877 176.744 115.605 178.652C114.333 180.56 114.969 181.197 115.605 181.833C116.241 182.469 116.877 182.469 116.241 183.741C115.605 185.013 92.0686 193.283 90.7964 193.283C89.5242 193.283 89.5242 192.011 90.1603 190.102C90.7964 188.194 93.3409 186.285 90.7964 185.649C88.252 185.013 87.6158 185.013 87.6158 181.833C87.6158 178.652 76.8019 159.569 76.8019 159.569C76.8019 159.569 72.3492 144.938 76.8019 138.577C81.2547 132.216 84.4353 127.763 86.9797 126.491C89.5242 125.219 92.7047 126.491 92.7047 126.491Z" fill="#CC0000"/>
<path d="M71.7131 156.388L64.0798 177.38L48.8131 222.544C48.8131 222.544 32.9104 244.808 43.7242 243.535C54.5381 242.263 55.8103 222.544 55.8103 222.544L70.4409 187.558L83.7992 160.841L71.7131 156.388Z" fill="#FFB9B9"/>
<path d="M79.3465 137.941L76.802 138.577C76.802 138.577 67.8965 156.388 69.8048 158.297C71.7132 160.205 81.8909 165.294 83.7992 164.658C85.7075 164.022 88.252 145.574 88.252 145.574L79.3465 137.941Z" fill="#CC0000"/>
<path d="M80.096 112.667C85.0313 110.497 91.0034 105.747 96.6745 101.826C98.5124 100.556 100.302 99.2224 102.083 97.8728C105.672 95.1527 114.309 94.2093 121.763 98.9891C130.284 104.452 134.441 113.169 132.135 116.766C130.228 119.74 123.897 119.219 116.946 115.862C115.969 122.374 113.734 128.864 111.293 132.671C105.769 141.286 101.122 133.164 92.5073 127.64C83.8924 122.116 70.7279 116.786 80.096 112.667Z" fill="#2F2E41"/>
<path d="M338.238 76.3508V130.641L340.646 129.336V135.598L343.537 143.305C343.537 143.305 346.427 143.305 346.427 144.75C346.427 146.195 343.537 148.604 343.537 148.604H338.238V174.216L341.61 166.426H347.872L352.207 175.096C352.207 175.096 349.317 176.06 349.317 177.986C349.317 179.913 352.689 183.767 352.207 186.175C351.725 188.584 349.798 192.437 348.353 193.882L342.092 200.144H338.238V368.252H366.176V76.3508H338.238Z" fill="#3F3D56"/>
<path d="M322.342 202.552L329.567 198.699C329.567 198.699 331.494 205.924 329.567 207.369C327.641 208.814 318.489 212.668 318.489 212.668L324.269 218.448H315.117L322.342 202.552Z" fill="#3F3D56"/>
<path d="M304.342 363.882L306.65 365.15C306.65 365.15 303.571 366.671 302.769 366.393C301.967 366.115 299.503 364.361 299.503 364.361L297.382 366.646L296.644 364.34L304.342 363.882Z" fill="#3F3D56"/>
<path d="M311.033 360.769C311.033 360.769 303.238 355.877 310.035 357.047C314.205 357.752 318.445 357.954 322.664 357.65L323.662 361.372L311.033 360.769Z" fill="#3F3D56"/>
<path d="M320.872 368.14C320.872 368.14 313.638 366.522 319.25 365.607C322.707 365.031 326.087 364.065 329.326 362.727L330.947 365.26L320.872 368.14Z" fill="#3F3D56"/>
<path d="M322.824 239.16V236.27H330.531V245.422L322.824 239.16Z" fill="#3F3D56"/>
<g clip-path="url(#clip1_4986_17051)">
<path d="M212 203.097C197.659 194.817 179.299 199.736 171.019 214.077C162.739 228.419 167.659 246.778 182 255.058C196.341 263.338 214.701 258.419 222.981 244.077C231.261 229.736 226.341 211.377 212 203.097ZM190.646 245.362L190.106 246.298C189.386 247.545 187.773 247.999 186.5 247.264C185.253 246.544 184.799 244.931 185.534 243.658L186.164 242.566C184.752 241.232 182.064 238.087 182.325 233.075C182.387 231.587 183.784 230.488 185.264 230.685L185.491 230.712C186.811 230.885 187.751 232.017 187.712 233.345C187.628 235.41 188.125 238.329 191.165 240.084C193.581 241.479 197.029 241.807 198.724 238.871C200.164 236.377 199.095 234.028 195.845 230.177C193.572 227.514 188.687 222.476 192.107 216.553C192.257 216.293 195.733 210.332 203.354 212.792L203.894 211.857C204.629 210.584 206.253 210.171 207.5 210.891C208.747 211.611 209.201 213.224 208.466 214.497L207.911 215.458C210.406 217.557 211.318 220.058 211.573 222.076C211.797 223.729 210.369 225.122 208.688 224.913C207.528 224.763 206.616 223.821 206.458 222.656C206.3 221.249 205.586 219.485 203.456 218.255C201.637 217.205 198.198 216.502 196.668 219.152C195.243 221.62 196.938 223.845 200.677 228.048C205.668 233.804 205.423 237.889 203.323 241.526C199.378 248.359 192.132 245.908 190.646 245.362Z" fill="#CC0000"/>
</g>
</g>
<defs>
<clipPath id="clip0_4986_17051">
<rect width="450" height="376.845" fill="white" transform="translate(0 0.0772705)"/>
</clipPath>
<clipPath id="clip1_4986_17051">
<rect width="72" height="72" fill="white" transform="translate(183.823 179.9) rotate(30)"/>
</clipPath>
</defs>
</svg>
