<svg width="64" height="64" viewBox="0 0 64 64" fill="none" xmlns="http://www.w3.org/2000/svg">
<path d="M37.572 0C38.1022 0 38.6107 0.210507 38.9857 0.585255L58.6137 20.1985C58.9891 20.5736 59.2 21.0826 59.2 21.6132V56.5333C59.2 60.6571 55.7902 64 51.584 64H12.416C8.20979 64 4.79999 60.6571 4.79999 56.5333V7.46667C4.79999 3.34294 8.20979 0 12.416 0H37.572Z" fill="#00A76F"/>
<g filter="url(#filter0_d_3266_17028)">
<path d="M56.7548 19.9323C57.0678 20.2479 56.8443 20.7844 56.3998 20.7844H46.4C42.2763 20.7844 38.5562 17.1573 38.5562 13.1365V2.79854C38.5562 2.3521 39.0968 2.12947 39.4112 2.44643L56.7548 19.9323Z" fill="white" fill-opacity="0.24" shape-rendering="crispEdges"/>
</g>
<path d="M38.3934 25.6001L38.393 25.618L38.4 25.6181V48.0001H36.5339L36.5337 47.9973H30.9221L29.0565 48.0001L29.0561 47.9973H25.3627L23.4968 48.0001L23.4967 47.9973H17.8722L16.0066 48.0001L16.0062 47.9973L16.0027 46.1326L16.0062 46.1323V40.4967L16.0014 38.6319L16.0062 38.6316V32.996L16 32.9964V31.1313L16.0062 31.1309V27.4652L16 27.4653V25.6001H38.3934ZM23.4967 40.4967H17.8722V46.1323H23.4967V40.4967ZM29.0561 40.4967H25.3627V46.1323H29.0561V40.4967ZM36.5337 40.4967H30.9221V46.1323H36.5337V40.4967ZM23.4967 32.996H17.8722V38.6316H23.4967V32.996ZM29.0561 32.996H25.3627V38.6316H29.0561V32.996ZM36.5337 32.996H30.9221V38.6316H36.5337V32.996ZM36.5337 27.4652H17.8722V31.1309H36.5337V27.4652Z" fill="white"/>
<defs>
<filter id="filter0_d_3266_17028" x="36.5562" y="2.29761" width="22.3446" height="22.4868" filterUnits="userSpaceOnUse" color-interpolation-filters="sRGB">
<feFlood flood-opacity="0" result="BackgroundImageFix"/>
<feColorMatrix in="SourceAlpha" type="matrix" values="0 0 0 0 0 0 0 0 0 0 0 0 0 0 0 0 0 0 127 0" result="hardAlpha"/>
<feOffset dy="2"/>
<feGaussianBlur stdDeviation="1"/>
<feComposite in2="hardAlpha" operator="out"/>
<feColorMatrix type="matrix" values="0 0 0 0 0 0 0 0 0 0 0 0 0 0 0 0 0 0 0.04 0"/>
<feBlend mode="normal" in2="BackgroundImageFix" result="effect1_dropShadow_3266_17028"/>
<feBlend mode="normal" in="SourceGraphic" in2="effect1_dropShadow_3266_17028" result="shape"/>
</filter>
</defs>
</svg>
