<svg width="25" height="24" viewBox="0 0 25 24" fill="none" xmlns="http://www.w3.org/2000/svg">
<g id="icons/ic-solar:eye-closed-bold">
<path id="primary-shape" fill-rule="evenodd" clip-rule="evenodd" d="M2.10598 6.07998C2.22673 6.02828 2.35648 6.00088 2.48782 5.99934C2.61916 5.99779 2.74952 6.02214 2.87145 6.07099C2.99338 6.11983 3.10449 6.19222 3.19844 6.28402C3.29238 6.37581 3.36733 6.48522 3.41899 6.60598L2.49999 6.99998L3.41999 6.60598L3.42299 6.61398L3.44399 6.65898C3.46399 6.70098 3.49499 6.76698 3.53799 6.85298C3.62399 7.02498 3.75698 7.27698 3.93798 7.58198C4.41507 8.38388 4.97478 9.13363 5.60799 9.81898C5.7977 10.0231 5.99448 10.2206 6.19799 10.411C7.67999 11.8 9.75098 13 12.5 13C13.6017 13.0049 14.6944 12.8006 15.72 12.398C16.947 11.915 17.974 11.188 18.816 10.4C19.9412 9.33069 20.8667 8.06927 21.549 6.67498L21.576 6.61698L21.581 6.60598C21.6879 6.36599 21.8851 6.17774 22.1297 6.08193C22.3744 5.98612 22.6469 5.99045 22.8884 6.09398C23.1299 6.19751 23.3209 6.39193 23.4202 6.6352C23.5195 6.87847 23.5191 7.15104 23.419 7.39398L23.417 7.39898L23.413 7.40698L23.402 7.43298L23.362 7.51998C23.1398 7.98251 22.8924 8.43252 22.621 8.86798C22.1213 9.67103 21.5485 10.4262 20.91 11.124L21.707 11.921C21.8946 12.1085 22.0001 12.3629 22.0002 12.6281C22.0003 12.8934 21.895 13.1478 21.7075 13.3355C21.52 13.5231 21.2656 13.6286 21.0003 13.6287C20.7351 13.6288 20.4806 13.5235 20.293 13.336L19.453 12.496C18.8625 12.9747 18.2273 13.3953 17.556 13.752L18.338 14.954C18.4118 15.064 18.4629 15.1876 18.4886 15.3176C18.5142 15.4475 18.5137 15.5813 18.4872 15.7111C18.4607 15.8409 18.4086 15.9641 18.3341 16.0736C18.2595 16.1831 18.164 16.2767 18.053 16.349C17.942 16.4212 17.8177 16.4707 17.6874 16.4946C17.5571 16.5184 17.4233 16.5161 17.2939 16.4878C17.1645 16.4596 17.042 16.4058 16.9335 16.3298C16.825 16.2538 16.7327 16.157 16.662 16.045L15.676 14.531C14.997 14.739 14.272 14.886 13.5 14.955V16.5C13.5 16.7652 13.3946 17.0196 13.2071 17.2071C13.0196 17.3946 12.7652 17.5 12.5 17.5C12.2348 17.5 11.9804 17.3946 11.7929 17.2071C11.6053 17.0196 11.5 16.7652 11.5 16.5V14.956C10.725 14.886 9.99998 14.739 9.32299 14.531L8.33799 16.045C8.19009 16.2595 7.96432 16.4078 7.70874 16.4583C7.45315 16.5089 7.18793 16.4577 6.96953 16.3156C6.75112 16.1736 6.59677 15.9519 6.53933 15.6978C6.48189 15.4437 6.5259 15.1771 6.66199 14.955L7.44398 13.752C6.74399 13.382 6.11199 12.952 5.54699 12.495L4.70698 13.335C4.51838 13.5171 4.26578 13.6179 4.00358 13.6157C3.74139 13.6134 3.49057 13.5082 3.30517 13.3228C3.11976 13.1374 3.01459 12.8866 3.01231 12.6244C3.01003 12.3622 3.11083 12.1096 3.29299 11.921L4.08998 11.124C3.38256 10.3501 2.75598 9.50609 2.21999 8.60498C2.00588 8.24537 1.80866 7.87597 1.62899 7.49798C1.61781 7.47406 1.60681 7.45006 1.59599 7.42598L1.58599 7.40498L1.58399 7.39798L1.58298 7.39598C1.57999 7.39598 1.57999 7.39398 2.49999 6.99998L1.58099 7.39498C1.5291 7.27424 1.50153 7.14446 1.49984 7.01305C1.49815 6.88165 1.52237 6.7512 1.57113 6.62916C1.61989 6.50713 1.69223 6.3959 1.784 6.30184C1.87577 6.20778 1.98519 6.13173 2.10598 6.07998Z" fill="#637381"/>
</g>
</svg>
