<svg width="25" height="24" viewBox="0 0 25 24" fill="none" xmlns="http://www.w3.org/2000/svg">
<path d="M10.25 12C10.25 11.4033 10.4871 10.831 10.909 10.409C11.331 9.98705 11.9033 9.75 12.5 9.75C13.0967 9.75 13.669 9.98705 14.091 10.409C14.5129 10.831 14.75 11.4033 14.75 12C14.75 12.5967 14.5129 13.169 14.091 13.591C13.669 14.0129 13.0967 14.25 12.5 14.25C11.9033 14.25 11.331 14.0129 10.909 13.591C10.4871 13.169 10.25 12.5967 10.25 12Z" fill="#637381"/>
<path fill-rule="evenodd" clip-rule="evenodd" d="M2.5 12C2.5 13.64 2.925 14.191 3.775 15.296C5.472 17.5 8.318 20 12.5 20C16.682 20 19.528 17.5 21.225 15.296C22.075 14.192 22.5 13.639 22.5 12C22.5 10.36 22.075 9.809 21.225 8.704C19.528 6.5 16.682 4 12.5 4C8.318 4 5.472 6.5 3.775 8.704C2.925 9.81 2.5 10.361 2.5 12ZM12.5 8.25C11.5054 8.25 10.5516 8.64509 9.84835 9.34835C9.14509 10.0516 8.75 11.0054 8.75 12C8.75 12.9946 9.14509 13.9484 9.84835 14.6517C10.5516 15.3549 11.5054 15.75 12.5 15.75C13.4946 15.75 14.4484 15.3549 15.1517 14.6517C15.8549 13.9484 16.25 12.9946 16.25 12C16.25 11.0054 15.8549 10.0516 15.1517 9.34835C14.4484 8.64509 13.4946 8.25 12.5 8.25Z" fill="#637381"/>
</svg>
