<svg width="64" height="64" viewBox="0 0 64 64" fill="none" xmlns="http://www.w3.org/2000/svg">
<path d="M37.572 0C38.1022 0 38.6107 0.210507 38.9857 0.585255L58.6137 20.1985C58.9891 20.5736 59.2 21.0826 59.2 21.6132V56.5333C59.2 60.6571 55.7902 64 51.584 64H12.416C8.20979 64 4.79999 60.6571 4.79999 56.5333V7.46667C4.79999 3.34294 8.20979 0 12.416 0H37.572Z" fill="#4586F9"/>
<g filter="url(#filter0_d_3266_17037)">
<path d="M56.7548 19.9323C57.0678 20.2479 56.8443 20.7844 56.3998 20.7844H46.4C42.2763 20.7844 38.5562 17.1573 38.5562 13.1365V2.79854C38.5562 2.3521 39.0968 2.12947 39.4112 2.44643L56.7548 19.9323Z" fill="white" fill-opacity="0.24" shape-rendering="crispEdges"/>
</g>
<path fill-rule="evenodd" clip-rule="evenodd" d="M16 27.1843H38.4V29.9843H16V27.1843ZM16 32.7843H38.4V35.5843H16V32.7843ZM16 38.3843H38.4V41.1843H16V38.3843ZM16 43.9843H27.2V46.7843H16V43.9843Z" fill="white"/>
<defs>
<filter id="filter0_d_3266_17037" x="36.5562" y="2.29761" width="22.3446" height="22.4868" filterUnits="userSpaceOnUse" color-interpolation-filters="sRGB">
<feFlood flood-opacity="0" result="BackgroundImageFix"/>
<feColorMatrix in="SourceAlpha" type="matrix" values="0 0 0 0 0 0 0 0 0 0 0 0 0 0 0 0 0 0 127 0" result="hardAlpha"/>
<feOffset dy="2"/>
<feGaussianBlur stdDeviation="1"/>
<feComposite in2="hardAlpha" operator="out"/>
<feColorMatrix type="matrix" values="0 0 0 0 0 0 0 0 0 0 0 0 0 0 0 0 0 0 0.04 0"/>
<feBlend mode="normal" in2="BackgroundImageFix" result="effect1_dropShadow_3266_17037"/>
<feBlend mode="normal" in="SourceGraphic" in2="effect1_dropShadow_3266_17037" result="shape"/>
</filter>
</defs>
</svg>
