<svg width="64" height="64" viewBox="0 0 64 64" fill="none" xmlns="http://www.w3.org/2000/svg">
<g clip-path="url(#clip0_3266_17001)">
<path d="M37.572 0C38.1022 0 38.6107 0.210507 38.9857 0.585255L58.6137 20.1985C58.9891 20.5736 59.2 21.0826 59.2 21.6132V56.5333C59.2 60.6571 55.7902 64 51.584 64H12.416C8.20979 64 4.79999 60.6571 4.79999 56.5333V7.46667C4.79999 3.34294 8.20979 0 12.416 0H37.572Z" fill="#22C55E"/>
<g filter="url(#filter0_d_3266_17001)">
<path d="M56.7548 19.9323C57.0678 20.2479 56.8443 20.7844 56.3998 20.7844H46.4C42.2763 20.7844 38.5562 17.1573 38.5562 13.1365V2.79854C38.5562 2.3521 39.0968 2.12947 39.4112 2.44643L56.7548 19.9323Z" fill="white" fill-opacity="0.24" shape-rendering="crispEdges"/>
</g>
<path fill-rule="evenodd" clip-rule="evenodd" d="M27.1406 25.6001H27.2594C29.665 25.6001 31.5498 25.6001 33.0209 25.7981C34.5253 26.0002 35.713 26.4232 36.6455 27.3546C37.578 28.2871 37.9999 29.4748 38.202 30.9803C38.4 32.4503 38.4 34.3351 38.4 36.7407V36.8324C38.4 38.8213 38.4 40.4487 38.2916 41.7739C38.1833 43.1075 37.9614 44.2192 37.4634 45.1444C37.2446 45.5517 36.9737 45.9174 36.6455 46.2456C35.713 47.1781 34.5253 47.6 33.0198 47.8021C31.5498 48.0001 29.665 48.0001 27.2594 48.0001H27.1406C24.735 48.0001 22.8502 48.0001 21.3791 47.8021C19.8747 47.6 18.687 47.177 17.7545 46.2456C16.9283 45.4194 16.5011 44.3911 16.2751 43.1138C16.0511 41.8604 16.0104 40.3007 16.0021 38.365C16 37.8722 16 37.3512 16 36.8011V36.7407C16 34.3351 16 32.4503 16.198 30.9792C16.4001 29.4748 16.8231 28.2871 17.7545 27.3546C18.687 26.4221 19.8747 26.0002 21.3802 25.7981C22.8502 25.6001 24.735 25.6001 27.1406 25.6001ZM21.5875 27.3463C20.256 27.5255 19.4527 27.8672 18.8599 28.46C18.266 29.0539 17.9254 29.8561 17.7462 31.1886C17.5649 32.5431 17.5628 34.3226 17.5628 36.8001C17.5628 37.3512 17.5628 37.869 17.5649 38.3577C17.5732 40.3101 17.617 41.7396 17.8128 42.8408C18.0045 43.9191 18.3317 44.612 18.8599 45.1402C19.4538 45.7341 20.256 46.0747 21.5885 46.2539C22.943 46.4352 24.7225 46.4373 27.2 46.4373C29.6775 46.4373 31.457 46.4352 32.8115 46.2539C34.144 46.0747 34.9473 45.733 35.5411 45.1402C35.7599 44.9214 35.9381 44.6797 36.0871 44.4036C36.433 43.7618 36.632 42.9033 36.7341 41.6479C36.8362 40.3924 36.8372 38.8276 36.8372 36.8001C36.8372 34.3226 36.8351 32.5431 36.6538 31.1886C36.4746 29.8561 36.1329 29.0528 35.5401 28.459C34.9462 27.8661 34.144 27.5255 32.8115 27.3463C31.457 27.165 29.6775 27.1629 27.2 27.1629C24.7225 27.1629 22.9419 27.165 21.5875 27.3463Z" fill="white"/>
<path d="M36.8362 38.1336L36.6049 38.1023C33.6418 37.6918 30.9299 39.2317 29.5494 41.554C27.7678 37.048 23.0617 33.9745 17.8035 34.7298L17.568 34.7632C17.5628 35.3852 17.5628 36.0614 17.5628 36.8001C17.5628 37.3512 17.5628 37.869 17.5649 38.3577C17.5732 40.3101 17.617 41.7396 17.8128 42.8408C18.0045 43.9191 18.3317 44.612 18.8599 45.1402C19.4538 45.7341 20.256 46.0747 21.5885 46.2539C22.943 46.4352 24.7225 46.4373 27.2 46.4373C29.6775 46.4373 31.457 46.4352 32.8115 46.2539C34.144 46.0747 34.9473 45.733 35.5411 45.1402C35.7599 44.9214 35.9381 44.6797 36.0871 44.4036C36.433 43.7618 36.632 42.9033 36.7341 41.6479C36.8132 40.6831 36.831 39.5349 36.8362 38.1336Z" fill="white"/>
<path d="M33.4512 32.6327C33.4512 33.1853 33.2316 33.7153 32.8409 34.1061C32.4501 34.4968 31.9201 34.7164 31.3674 34.7164C30.8148 34.7164 30.2848 34.4968 29.894 34.1061C29.5033 33.7153 29.2837 33.1853 29.2837 32.6327C29.2837 32.08 29.5033 31.55 29.894 31.1592C30.2848 30.7685 30.8148 30.5489 31.3674 30.5489C31.9201 30.5489 32.4501 30.7685 32.8409 31.1592C33.2316 31.55 33.4512 32.08 33.4512 32.6327Z" fill="white"/>
</g>
<defs>
<filter id="filter0_d_3266_17001" x="36.5562" y="2.29761" width="22.3446" height="22.4868" filterUnits="userSpaceOnUse" color-interpolation-filters="sRGB">
<feFlood flood-opacity="0" result="BackgroundImageFix"/>
<feColorMatrix in="SourceAlpha" type="matrix" values="0 0 0 0 0 0 0 0 0 0 0 0 0 0 0 0 0 0 127 0" result="hardAlpha"/>
<feOffset dy="2"/>
<feGaussianBlur stdDeviation="1"/>
<feComposite in2="hardAlpha" operator="out"/>
<feColorMatrix type="matrix" values="0 0 0 0 0 0 0 0 0 0 0 0 0 0 0 0 0 0 0.04 0"/>
<feBlend mode="normal" in2="BackgroundImageFix" result="effect1_dropShadow_3266_17001"/>
<feBlend mode="normal" in="SourceGraphic" in2="effect1_dropShadow_3266_17001" result="shape"/>
</filter>
<clipPath id="clip0_3266_17001">
<rect width="64" height="64" fill="white"/>
</clipPath>
</defs>
</svg>
