<svg width="64" height="64" viewBox="0 0 64 64" fill="none" xmlns="http://www.w3.org/2000/svg">
<path d="M37.572 0C38.1022 0 38.6107 0.210507 38.9857 0.585255L58.6137 20.1985C58.9891 20.5736 59.2 21.0826 59.2 21.6132V56.5333C59.2 60.6571 55.7902 64 51.584 64H12.416C8.20979 64 4.79999 60.6571 4.79999 56.5333V7.46667C4.79999 3.34294 8.20979 0 12.416 0H37.572Z" fill="#E94848"/>
<g filter="url(#filter0_d_3266_17019)">
<path d="M56.7548 19.9323C57.0678 20.2479 56.8443 20.7844 56.3998 20.7844H46.4C42.2763 20.7844 38.5562 17.1573 38.5562 13.1365V2.79854C38.5562 2.3521 39.0968 2.12947 39.4112 2.44643L56.7548 19.9323Z" fill="white" fill-opacity="0.24" shape-rendering="crispEdges"/>
</g>
<path d="M25.7067 25.5845C24.3409 25.5845 23.2178 26.7076 23.2178 28.0734C23.2178 29.7712 24.1611 31.8789 25.1544 33.86C24.378 36.2906 23.4969 38.8954 22.37 41.0934C20.0635 41.9984 18.0067 42.671 16.77 43.6678C16.7507 43.6875 16.7325 43.7083 16.7156 43.73C16.2637 44.1922 16 44.8214 16 45.4956C16 46.8613 17.1232 47.9845 18.4889 47.9845C19.1549 47.9845 19.7977 47.7359 20.2622 47.2611C20.2783 47.2488 20.2939 47.2358 20.3089 47.2222C21.2192 46.1353 22.2925 44.1635 23.2489 42.3611C25.453 41.4941 27.7631 40.6119 29.9922 40.0823C31.6195 41.3937 33.9737 42.26 35.9111 42.26C37.2768 42.26 38.4 41.1369 38.4 39.7711C38.4 38.4054 37.2768 37.2823 35.9111 37.2823C34.3574 37.2823 32.0996 37.8369 30.3733 38.4178C28.9741 37.1042 27.6885 35.4636 26.7644 33.72C27.4246 31.6862 28.1956 29.6512 28.1956 28.0734C28.1956 26.7076 27.0724 25.5845 25.7067 25.5845ZM25.7067 27.0778C26.2653 27.0778 26.7022 27.5147 26.7022 28.0734C26.7022 28.8204 26.3022 30.1958 25.8389 31.6745C25.2198 30.236 24.7111 28.8558 24.7111 28.0734C24.7111 27.5147 25.148 27.0778 25.7067 27.0778ZM26.1344 35.5945C26.883 36.7852 27.7597 37.8932 28.7167 38.8767C27.2407 39.2803 25.7992 39.7974 24.3767 40.3389C25.0637 38.7882 25.6138 37.179 26.1344 35.5945ZM35.9111 38.7756C36.4698 38.7756 36.9067 39.2125 36.9067 39.7711C36.9067 40.3298 36.4698 40.7667 35.9111 40.7667C34.7895 40.7667 33.1955 40.2604 31.9211 39.5534C33.3839 39.1398 34.9799 38.7756 35.9111 38.7756ZM21.0556 43.2323C20.3557 44.4816 19.6599 45.6477 19.1733 46.2345C19.0071 46.3934 18.786 46.4911 18.4889 46.4911C17.9302 46.4911 17.4933 46.0542 17.4933 45.4956C17.4933 45.2327 17.6051 44.9716 17.7578 44.8034C18.3416 44.3515 19.6119 43.8101 21.0556 43.2323Z" fill="white"/>
<defs>
<filter id="filter0_d_3266_17019" x="36.5562" y="2.29761" width="22.3446" height="22.4868" filterUnits="userSpaceOnUse" color-interpolation-filters="sRGB">
<feFlood flood-opacity="0" result="BackgroundImageFix"/>
<feColorMatrix in="SourceAlpha" type="matrix" values="0 0 0 0 0 0 0 0 0 0 0 0 0 0 0 0 0 0 127 0" result="hardAlpha"/>
<feOffset dy="2"/>
<feGaussianBlur stdDeviation="1"/>
<feComposite in2="hardAlpha" operator="out"/>
<feColorMatrix type="matrix" values="0 0 0 0 0 0 0 0 0 0 0 0 0 0 0 0 0 0 0.04 0"/>
<feBlend mode="normal" in2="BackgroundImageFix" result="effect1_dropShadow_3266_17019"/>
<feBlend mode="normal" in="SourceGraphic" in2="effect1_dropShadow_3266_17019" result="shape"/>
</filter>
</defs>
</svg>
