<svg width="64" height="64" viewBox="0 0 64 64" fill="none" xmlns="http://www.w3.org/2000/svg">
<g clip-path="url(#clip0_3266_16992)">
<path d="M37.572 0C38.1022 0 38.6107 0.210507 38.9857 0.585255L58.6137 20.1985C58.9891 20.5736 59.2 21.0826 59.2 21.6132V56.5333C59.2 60.6571 55.7902 64 51.584 64H12.416C8.20979 64 4.79999 60.6571 4.79999 56.5333V7.46667C4.79999 3.34294 8.20979 0 12.416 0H37.572Z" fill="#454F5B"/>
<g filter="url(#filter0_d_3266_16992)">
<path d="M56.7548 19.9323C57.0678 20.2479 56.8443 20.7844 56.3998 20.7844H46.4C42.2763 20.7844 38.5562 17.1573 38.5562 13.1365V2.79854C38.5562 2.3521 39.0968 2.12947 39.4112 2.44643L56.7548 19.9323Z" fill="white" fill-opacity="0.24" shape-rendering="crispEdges"/>
</g>
<path d="M12.7997 39.0017V35.7185H24.4541V39.0017H20.4797V49.6001H16.7357V39.0017H12.7997Z" fill="white"/>
<path d="M38.9956 49.6001H34.33L31.7764 45.2417L29.2804 49.6001H25.306L29.8372 42.5921L25.4212 35.7185H30.0484L32.1988 39.4817L34.33 35.7185H38.2468L34.0996 42.0545L38.9956 49.6001Z" fill="white"/>
<path d="M39.7622 39.0017V35.7185H51.4166V39.0017H47.4422V49.6001H43.6982V39.0017H39.7622Z" fill="white"/>
</g>
<defs>
<filter id="filter0_d_3266_16992" x="36.5562" y="2.29761" width="22.3446" height="22.4868" filterUnits="userSpaceOnUse" color-interpolation-filters="sRGB">
<feFlood flood-opacity="0" result="BackgroundImageFix"/>
<feColorMatrix in="SourceAlpha" type="matrix" values="0 0 0 0 0 0 0 0 0 0 0 0 0 0 0 0 0 0 127 0" result="hardAlpha"/>
<feOffset dy="2"/>
<feGaussianBlur stdDeviation="1"/>
<feComposite in2="hardAlpha" operator="out"/>
<feColorMatrix type="matrix" values="0 0 0 0 0 0 0 0 0 0 0 0 0 0 0 0 0 0 0.04 0"/>
<feBlend mode="normal" in2="BackgroundImageFix" result="effect1_dropShadow_3266_16992"/>
<feBlend mode="normal" in="SourceGraphic" in2="effect1_dropShadow_3266_16992" result="shape"/>
</filter>
<clipPath id="clip0_3266_16992">
<rect width="64" height="64" fill="white"/>
</clipPath>
</defs>
</svg>
