<?xml version="1.0" encoding="UTF-8" standalone="no"?>
<!-- Created with Inkscape (http://www.inkscape.org/) -->

<svg
   version="1.1"
   id="svg2"
   width="1117.944"
   height="539.97333"
   viewBox="0 0 1117.944 539.97333"
   sodipodi:docname="0303確認LGOG.ai"
   xmlns:inkscape="http://www.inkscape.org/namespaces/inkscape"
   xmlns:sodipodi="http://sodipodi.sourceforge.net/DTD/sodipodi-0.dtd"
   xmlns="http://www.w3.org/2000/svg"
   xmlns:svg="http://www.w3.org/2000/svg">
  <defs
     id="defs6">
    <clipPath
       clipPathUnits="userSpaceOnUse"
       id="clipPath40">
      <path
         d="M 0,0 H 838.458 V 404.98 H 0 Z"
         id="path38" />
    </clipPath>
  </defs>
  <sodipodi:namedview
     id="namedview4"
     pagecolor="#ffffff"
     bordercolor="#000000"
     borderopacity="0.25"
     inkscape:showpageshadow="2"
     inkscape:pageopacity="0.0"
     inkscape:pagecheckerboard="0"
     inkscape:deskcolor="#d1d1d1" />
  <g
     id="g8"
     inkscape:groupmode="layer"
     inkscape:label="0303確認LGOG"
     transform="matrix(1.3333333,0,0,-1.3333333,0,539.97333)">
    <g
       id="g10"
       transform="translate(130.2334,243.5215)">
      <path
         d="M 0,0 -45.094,-45.095 -90.189,0 -45.094,45.094 Z"
         style="fill:#231f20;fill-opacity:1;fill-rule:nonzero;stroke:none"
         id="path12" />
    </g>
    <g
       id="g14"
       transform="translate(128.1426,152.5664)">
      <path
         d="M 0,0 -45.094,-45.094 -90.188,0 -45.094,45.095 Z"
         style="fill:#cd2d3e;fill-opacity:1;fill-rule:nonzero;stroke:none"
         id="path16" />
    </g>
    <g
       id="g18"
       transform="translate(83.3472,197.4902)">
      <path
         d="M 0,0 -45.095,-45.094 V 45.095 Z"
         style="fill:#231f20;fill-opacity:1;fill-rule:nonzero;stroke:none"
         id="path20" />
    </g>
    <g
       id="g22"
       transform="translate(137.3271,243.1426)">
      <path
         d="M 0,0 45.094,-45.094 90.189,0 45.094,45.094 Z"
         style="fill:#cd2d3e;fill-opacity:1;fill-rule:nonzero;stroke:none"
         id="path24" />
    </g>
    <g
       id="g26"
       transform="translate(137.5107,152.9365)">
      <path
         d="M 0,0 45.094,-45.095 90.189,0 45.094,45.095 Z"
         style="fill:#cd2d3e;fill-opacity:1;fill-rule:nonzero;stroke:none"
         id="path28" />
    </g>
    <g
       id="g30"
       transform="translate(182.3062,197.8604)">
      <path
         d="M 0,0 45.095,-45.095 V 45.094 Z"
         style="fill:#231f20;fill-opacity:1;fill-rule:nonzero;stroke:none"
         id="path32" />
    </g>
    <g
       id="g34">
      <g
         id="g36"
         clip-path="url(#clipPath40)">
        <g
           id="g42"
           transform="translate(318.5322,262.3921)">
          <path
             d="m 0,0 h 54.162 c 5.721,0 8.581,-2.737 8.581,-8.202 -0.187,-1.791 -0.844,-3.573 -1.969,-5.363 -4.689,-5.781 -14.021,-14.511 -27.995,-26.184 -0.845,-0.631 -1.267,-1.423 -1.267,-2.37 0,-0.52 0.516,-1.262 1.548,-2.208 6.284,-6.514 11.02,-12.772 14.209,-18.766 h 20.258 c 2.157,-0.102 3.282,-1.365 3.376,-3.786 -0.094,-2.421 -1.219,-3.683 -3.376,-3.786 H 50.926 c 2.626,-6.522 3.939,-13.3 3.939,-20.351 0,-15.245 -2.063,-26.652 -6.19,-34.224 -4.314,-7.784 -10.973,-11.673 -19.976,-11.673 -6.19,0 -14.631,1.681 -25.323,5.049 -1.031,1.158 -1.735,2.421 -2.11,3.784 0.094,2.738 1.407,4.205 3.939,4.417 0.282,0 0.704,-0.05 1.266,-0.153 9.66,-3.266 18.336,-4.894 26.026,-4.894 4.408,0 8.113,3.104 11.114,9.311 2.626,5.779 3.939,15.082 3.939,27.914 0,7.153 -1.454,14.094 -4.361,20.82 H -5.487 c -2.25,0.103 -3.423,1.365 -3.517,3.786 0.094,2.421 1.267,3.684 3.517,3.786 h 44.596 c -3.47,5.465 -8.112,11.195 -13.927,17.189 -1.407,1.577 -2.204,3.001 -2.392,4.263 0,2.421 0.61,4.314 1.829,5.678 11.723,9.046 21.008,17.402 27.855,25.075 0.469,0.316 0.703,0.895 0.703,1.74 0,1.048 -0.609,1.577 -1.829,1.577 L 0,-7.571 c -2.157,0.102 -3.283,1.364 -3.376,3.785 C -3.283,-1.475 -2.157,-0.213 0,0 m -30.387,-93.062 c 1.125,2.208 2.016,4.468 2.673,6.777 3.564,9.78 6.377,21.402 8.441,34.864 1.407,9.993 2.11,17.3 2.11,21.921 0,2.003 -1.032,3.001 -3.095,3.001 h -16.6 c -4.033,-17.453 -7.878,-32.706 -11.536,-45.742 -0.375,-1.05 -0.563,-2.209 -0.563,-3.471 0,-1.16 0.61,-2.106 1.829,-2.839 6.096,-4.946 11.677,-9.78 16.741,-14.511 m -3.376,103.157 c 2.626,-0.102 3.939,-1.68 3.939,-4.732 -1.782,-8.62 -3.517,-16.72 -5.205,-24.291 h 15.615 c 6.378,0 9.566,-3.572 9.566,-10.726 0,-3.367 -0.797,-11.203 -2.391,-23.506 -2.439,-15.663 -5.44,-28.281 -9.004,-37.856 -1.031,-2.839 -2.11,-5.363 -3.235,-7.571 6.752,-6.625 12.567,-12.934 17.444,-18.919 0.563,-0.844 0.844,-1.842 0.844,-3.002 -0.281,-2.31 -1.641,-3.573 -4.08,-3.785 -0.75,0 -1.688,0.58 -2.813,1.739 -4.314,5.781 -9.285,11.51 -14.912,17.189 -2.251,-3.888 -4.69,-7.469 -7.316,-10.726 -5.439,-7.256 -12.708,-14.145 -21.805,-20.659 -0.469,-0.213 -0.985,-0.315 -1.548,-0.315 -2.72,0.102 -4.173,1.628 -4.361,4.569 0.094,1.16 0.797,2.26 2.11,3.317 8.629,5.679 15.381,11.877 20.258,18.604 2.626,3.47 4.924,7.051 6.894,10.726 -5.346,5.048 -11.067,10.044 -17.163,14.989 -3.846,2.736 -5.768,5.78 -5.768,9.148 0,0.947 0.187,2.259 0.563,3.939 4.22,14.938 8.065,30.029 11.535,45.274 h -15.193 c -2.063,0.102 -3.142,1.364 -3.236,3.786 0.094,2.31 1.173,3.572 3.236,3.785 h 16.881 c 1.97,8.62 3.752,17.189 5.346,25.706 0.751,2.208 2.017,3.317 3.799,3.317"
             style="fill:#231f20;fill-opacity:1;fill-rule:nonzero;stroke:none"
             id="path44" />
        </g>
        <g
           id="g46"
           transform="translate(511.8311,201.8228)">
          <path
             d="m 0,0 c 3.751,0 5.627,2.046 5.627,6.147 v 19.09 h -27.01 L -21.383,0 Z M -21.383,58.676 V 32.808 h 27.01 v 19.559 c 0,4.204 -1.876,6.309 -5.627,6.309 z M -28.703,0 V 25.237 H -54.588 V 6.147 C -54.588,2.046 -52.712,0 -48.961,0 Z m -25.885,32.808 h 25.885 v 25.868 h -20.258 c -3.751,0 -5.627,-2.105 -5.627,-6.309 z m 3.939,33.44 H 1.687 c 7.503,0 11.256,-4.204 11.256,-12.619 V 5.047 C 12.943,-3.368 9.19,-7.571 1.687,-7.571 h -23.07 v -23.975 h 32.91 c 2.166,-0.103 3.291,-1.366 3.377,-3.787 -0.086,-2.42 -1.211,-3.682 -3.377,-3.785 h -32.91 v -25.868 h 37.412 c 2.166,-0.102 3.291,-1.364 3.376,-3.785 -0.085,-2.422 -1.21,-3.685 -3.376,-3.786 h -82.717 c -2.156,0.101 -3.281,1.364 -3.375,3.786 0.094,2.421 1.219,3.683 3.375,3.785 h 37.985 v 25.868 h -32.358 c -2.156,0.103 -3.281,1.365 -3.376,3.785 0.095,2.421 1.22,3.684 3.376,3.787 h 32.358 v 23.975 h -21.946 c -7.503,0 -11.255,4.203 -11.255,12.618 v 48.582 c 0,8.415 3.752,12.619 11.255,12.619 m -22.368,-2.524 c 2.251,-0.102 3.423,-1.364 3.517,-3.786 -0.094,-2.421 -1.266,-3.683 -3.517,-3.785 H -85.538 V 8.202 h 12.099 c 2.157,-0.102 3.282,-1.364 3.376,-3.785 -0.094,-2.422 -1.219,-3.684 -3.376,-3.786 h -12.099 v -55.206 c 4.502,3.052 8.675,6.462 12.521,10.247 0.938,0.845 1.782,1.322 2.532,1.425 2.251,-0.103 3.517,-1.364 3.797,-3.786 0,-1.679 -0.655,-3.154 -1.968,-4.416 -4.596,-4.315 -9.895,-8.306 -15.897,-11.988 -6.378,-4.101 -13.412,-7.784 -21.102,-11.041 -1.219,-0.53 -2.11,-0.785 -2.673,-0.785 -2.063,0.205 -3.189,1.416 -3.376,3.624 0.093,2.31 1.125,3.786 3.095,4.416 6.471,2.942 11.723,5.576 15.756,7.887 V 0.631 h -13.787 c -2.157,0.102 -3.282,1.364 -3.376,3.786 0.094,2.421 1.219,3.683 3.376,3.785 h 13.787 v 47.951 h -15.475 c -2.157,0.102 -3.283,1.364 -3.376,3.785 0.093,2.422 1.219,3.684 3.376,3.786 z"
             style="fill:#231f20;fill-opacity:1;fill-rule:nonzero;stroke:none"
             id="path48" />
        </g>
        <g
           id="g50"
           transform="translate(610.0176,273.7485)">
          <path
             d="m 0,0 c 2.541,-0.102 3.854,-1.577 3.938,-4.417 v -9.463 h 47.696 c 8.535,0 12.805,-5.261 12.805,-15.774 0,-3.47 -0.665,-7.469 -1.977,-11.987 -1.125,-2.106 -2.626,-3.155 -4.502,-3.155 -1.961,0.418 -3.086,1.79 -3.376,4.101 0,0.418 0.102,0.844 0.29,1.262 0.75,1.79 1.313,3.734 1.688,5.832 0.375,2.208 0.563,3.998 0.563,5.363 0,4.527 -2.064,6.786 -6.19,6.786 H -50.918 c -3.751,0 -5.627,-2.106 -5.627,-6.309 v -12.303 c 0,-2.737 -1.228,-4.101 -3.666,-4.101 -2.439,0 -3.649,1.364 -3.649,4.101 v 14.196 c 0,7.989 3.564,11.988 10.691,11.988 h 49.23 v 9.463 C -3.837,-1.577 -2.524,-0.102 0,0 m 42.204,-39.749 c 2.166,-0.102 3.291,-1.364 3.376,-3.785 -0.085,-2.422 -1.21,-3.683 -3.376,-3.786 h -39.1 c -0.188,-1.048 -0.563,-1.995 -1.126,-2.839 -2.166,-2.524 -4.416,-4.732 -6.753,-6.625 7.213,-8.304 12.61,-16.617 16.173,-24.921 0.376,-0.947 0.708,-1.791 0.982,-2.524 0.851,-1.577 1.644,-3.001 2.395,-4.263 0.375,0.315 0.606,0.528 0.707,0.631 4.691,3.581 9.141,7.631 13.362,12.149 2.532,2.737 6.232,7.358 11.109,13.881 0.563,0.844 1.603,1.262 3.104,1.262 1.875,-0.213 2.899,-1.313 3.086,-3.317 0,-1.68 -0.418,-2.993 -1.262,-3.939 -3.846,-5.261 -7.64,-9.831 -11.392,-13.727 -3.938,-4.203 -8.729,-8.518 -14.356,-12.934 -0.086,-0.102 -0.189,-0.153 -0.274,-0.153 3.836,-5.466 7.963,-10.462 12.38,-14.989 8.817,-8.305 19.508,-16.029 32.075,-23.183 0.939,-1.159 1.399,-2.472 1.399,-3.939 -0.46,-2.524 -1.689,-4.05 -3.65,-4.578 -1.416,0 -2.625,0.528 -3.666,1.578 -16.318,10.624 -27.76,20.027 -34.326,28.229 -2.251,2.634 -4.356,5.474 -6.326,8.517 0.281,-2.728 0.427,-5.362 0.427,-7.886 0,-11.877 -1.876,-21.29 -5.628,-28.23 -3.376,-6.522 -8.168,-9.779 -14.358,-9.779 -4.962,0 -11.903,1.475 -20.821,4.416 -1.876,0.844 -3.044,2.107 -3.512,3.786 0.188,2.839 1.636,4.314 4.365,4.416 0.562,0 1.355,-0.213 2.387,-0.631 7.785,-2.524 14.162,-3.785 19.132,-3.785 3.19,0 5.765,2.421 7.742,7.255 2.251,5.576 3.376,13.25 3.376,23.029 0,4.732 -0.562,9.302 -1.687,13.719 -13.795,-13.454 -26.03,-23.396 -36.723,-29.806 -8.628,-4.733 -18.193,-9.517 -28.698,-14.351 -1.125,-0.111 -2.063,-0.315 -2.813,-0.631 -2.814,0.103 -4.358,1.416 -4.647,3.94 0.102,2.625 1.228,4.203 3.376,4.731 13.881,5.576 25.05,11.042 33.49,16.404 9.567,6.207 20.821,15.458 33.764,27.761 -0.563,1.578 -1.125,3.104 -1.688,4.57 -1.313,2.951 -2.866,5.892 -4.647,8.833 -12.286,-11.987 -23.071,-20.761 -32.356,-26.337 -7.316,-3.998 -15.432,-8.048 -24.334,-12.149 -1.04,-0.205 -1.833,-0.418 -2.395,-0.631 -2.814,0.111 -4.357,1.424 -4.647,3.947 0.101,2.626 1.228,4.205 3.376,4.732 11.732,4.732 21.153,9.413 28.281,14.034 7.972,5.158 17.257,12.73 27.854,22.714 -1.781,2.523 -3.752,4.996 -5.908,7.417 -3.282,-2.421 -6.711,-4.732 -10.274,-6.94 -8.338,-5.047 -19.031,-10.044 -32.075,-14.989 -0.938,-0.315 -1.688,-0.469 -2.251,-0.469 -1.398,0.103 -2.523,1.16 -3.376,3.155 0,2.421 0.989,3.888 2.959,4.416 13.317,5.261 23.675,10.095 31.093,14.512 7.027,4.101 13.549,8.935 19.551,14.511 h -37.284 c -2.15,0.103 -3.275,1.364 -3.376,3.786 0.101,2.421 1.226,3.683 3.376,3.785 z"
             style="fill:#231f20;fill-opacity:1;fill-rule:nonzero;stroke:none"
             id="path52" />
        </g>
        <g
           id="g54"
           transform="translate(808.0957,195.5137)">
          <path
             d="M 0,0 C 2.165,-0.103 3.29,-1.364 3.375,-3.786 3.29,-6.207 2.165,-7.418 0,-7.418 h -34.036 v -47.474 h 41.35 c 2.166,-0.101 3.291,-1.364 3.377,-3.785 -0.086,-2.422 -1.211,-3.683 -3.377,-3.785 h -89.471 c -2.15,0.102 -3.275,1.363 -3.377,3.785 0.102,2.421 1.227,3.684 3.377,3.785 h 40.804 v 47.474 h -31.239 c -2.148,0 -3.273,1.211 -3.376,3.632 0.103,2.422 1.228,3.683 3.376,3.786 h 31.239 v 29.337 c 0.086,2.627 1.315,3.999 3.651,4.101 2.352,-0.102 3.563,-1.474 3.666,-4.101 L -34.036,0 Z M 6.189,56.153 C 8.355,56.05 9.48,54.789 9.565,52.367 9.48,49.946 8.355,48.684 6.189,48.582 h -73.852 c -1.782,-4.519 -3.7,-9.047 -5.765,-13.565 -4.688,-9.678 -10.69,-18.827 -18.007,-27.446 v -73.819 c -0.101,-2.421 -1.312,-3.684 -3.666,-3.785 -2.336,0.101 -3.563,1.364 -3.649,3.785 v 65.616 c -4.979,-5.261 -10.044,-9.778 -15.193,-13.564 -0.478,-0.631 -1.314,-0.947 -2.54,-0.947 -2.251,0.417 -3.565,1.68 -3.94,3.786 0.188,1.474 0.614,2.676 1.271,3.624 6.939,5.363 12.984,10.725 18.152,16.088 8.44,9.465 14.817,18.356 19.133,26.662 2.25,4.314 4.313,8.833 6.189,13.565 h -38.554 c -2.15,0.102 -3.275,1.364 -3.377,3.785 0.102,2.422 1.227,3.683 3.377,3.786 h 41.504 c 1.689,4.834 3.326,9.932 4.928,15.296 0.375,2.319 1.585,3.529 3.65,3.632 2.165,-0.103 3.376,-1.527 3.666,-4.264 l -0.426,-1.261 c -1.126,-4.417 -2.49,-8.884 -4.076,-13.403 z"
             style="fill:#231f20;fill-opacity:1;fill-rule:nonzero;stroke:none"
             id="path56" />
        </g>
      </g>
    </g>
  </g>
</svg>
