<svg width="32" height="33" viewBox="0 0 32 33" fill="none" xmlns="http://www.w3.org/2000/svg">
<g id="logomark">
<path id="Icon" d="M10.6667 18.9167C10.6667 18.9167 12.6667 21.5833 16 21.5833C19.3334 21.5833 21.3334 18.9167 21.3334 18.9167M22.6667 12.57C22.14 13.2167 21.42 13.5833 20.6667 13.5833C19.9134 13.5833 19.2134 13.2167 18.6667 12.57M13.3334 12.57C12.8067 13.2167 12.0867 13.5833 11.3334 13.5833C10.58 13.5833 9.88002 13.2167 9.33335 12.57M29.3334 16.25C29.3334 23.6138 23.3638 29.5833 16 29.5833C8.63622 29.5833 2.66669 23.6138 2.66669 16.25C2.66669 8.88619 8.63622 2.91666 16 2.91666C23.3638 2.91666 29.3334 8.88619 29.3334 16.25Z" stroke="#FF5733" stroke-width="3" stroke-linecap="round" stroke-linejoin="round"/>
</g>
</svg>
